<svg width="24" height="24" viewBox="0 0 24 24" fill="none" xmlns="http://www.w3.org/2000/svg">
<path d="M8.667 12C8.667 11.5622 8.75322 11.1288 8.92075 10.7243C9.08827 10.3199 9.33382 9.9524 9.64336 9.64286C9.9529 9.33332 10.3204 9.08777 10.7248 8.92025C11.1293 8.75272 11.5627 8.6665 12.0005 8.6665C12.4383 8.6665 12.8717 8.75272 13.2762 8.92025C13.6806 9.08777 14.0481 9.33332 14.3576 9.64286C14.6672 9.9524 14.9127 10.3199 15.0803 10.7243C15.2478 11.1288 15.334 11.5622 15.334 12C15.334 12.8841 14.9828 13.732 14.3576 14.3571C13.7325 14.9823 12.8846 15.3335 12.0005 15.3335C11.1164 15.3335 10.2685 14.9823 9.64336 14.3571C9.01821 13.732 8.667 12.8841 8.667 12ZM6.865 12C6.865 12.6743 6.99782 13.3421 7.25588 13.9651C7.51394 14.5881 7.89218 15.1542 8.36901 15.631C8.84584 16.1078 9.41191 16.4861 10.0349 16.7441C10.6579 17.0022 11.3257 17.135 12 17.135C12.6743 17.135 13.3421 17.0022 13.9651 16.7441C14.5881 16.4861 15.1542 16.1078 15.631 15.631C16.1078 15.1542 16.4861 14.5881 16.7441 13.9651C17.0022 13.3421 17.135 12.6743 17.135 12C17.135 10.6381 16.594 9.33201 15.631 8.36901C14.668 7.40601 13.3619 6.865 12 6.865C10.6381 6.865 9.33201 7.40601 8.36901 8.36901C7.40601 9.33201 6.865 10.6381 6.865 12M16.138 6.662C16.138 6.89934 16.2084 7.13135 16.3402 7.32868C16.4721 7.52602 16.6595 7.67983 16.8788 7.77066C17.0981 7.86148 17.3393 7.88524 17.5721 7.83894C17.8049 7.79264 18.0187 7.67835 18.1865 7.51053C18.3544 7.34271 18.4686 7.12889 18.5149 6.89611C18.5612 6.66333 18.5375 6.42205 18.4467 6.20278C18.3558 5.98351 18.202 5.79609 18.0047 5.66424C17.8073 5.53238 17.5753 5.462 17.338 5.462C17.0197 5.462 16.7145 5.58843 16.4895 5.81347C16.2644 6.03852 16.138 6.34374 16.138 6.662M7.96 20.14C6.985 20.095 6.455 19.933 6.103 19.796C5.66862 19.6357 5.27566 19.3801 4.953 19.048C4.62091 18.7253 4.36532 18.3324 4.205 17.898C4.067 17.546 3.905 17.016 3.861 16.041C3.812 14.987 3.803 14.671 3.803 12.001C3.803 9.331 3.813 9.014 3.861 7.959C3.905 6.984 4.069 6.455 4.205 6.102C4.386 5.635 4.603 5.302 4.953 4.952C5.303 4.602 5.635 4.385 6.103 4.204C6.455 4.066 6.985 3.904 7.96 3.86C9.014 3.81 9.33 3.8 12 3.8C14.67 3.8 14.986 3.81 16.041 3.859C17.016 3.903 17.545 4.067 17.898 4.203C18.365 4.383 18.698 4.601 19.048 4.951C19.398 5.301 19.615 5.634 19.797 6.101C19.934 6.453 20.097 6.983 20.14 7.958C20.189 9.013 20.199 9.328 20.199 11.999C20.199 14.669 20.189 14.985 20.14 16.04C20.096 17.015 19.933 17.545 19.797 17.897C19.6367 18.3314 19.3811 18.7243 19.049 19.047C18.7263 19.3791 18.3334 19.6347 17.899 19.795C17.546 19.932 17.016 20.095 16.041 20.139C14.987 20.187 14.671 20.197 12 20.197C9.33 20.197 9.014 20.187 7.96 20.139M7.877 2.06C6.813 2.109 6.085 2.278 5.45 2.525C4.78247 2.77582 4.17773 3.16931 3.678 3.678C3.16931 4.17773 2.77582 4.78247 2.525 5.45C2.278 6.086 2.109 6.813 2.061 7.877C2.01 8.943 2 9.284 2 12C2 14.716 2.011 15.057 2.06 16.123C2.109 17.187 2.278 17.914 2.525 18.55C2.77594 19.2172 3.16943 19.8216 3.678 20.321C4.17763 20.8301 4.78238 21.2239 5.45 21.475C6.086 21.722 6.813 21.891 7.877 21.939C8.944 21.988 9.284 22 12 22C14.716 22 15.057 21.989 16.123 21.94C17.187 21.891 17.914 21.722 18.55 21.475C19.2173 21.2238 19.8217 20.8299 20.321 20.321C20.8298 19.8219 21.2236 19.2179 21.475 18.551C21.722 17.914 21.892 17.187 21.939 16.123C21.988 15.056 21.999 14.716 21.999 12C21.999 9.284 21.988 8.943 21.939 7.877C21.891 6.813 21.722 6.085 21.475 5.45C21.2239 4.78238 20.8301 4.17763 20.321 3.678C19.8218 3.16955 19.2178 2.77607 18.551 2.525C17.914 2.278 17.187 2.108 16.124 2.061C15.057 2.012 14.717 2 12 2C9.283 2 8.943 2.011 7.876 2.06" fill="white"/>
<path d="M8.667 12C8.667 11.5622 8.75322 11.1288 8.92075 10.7243C9.08827 10.3199 9.33382 9.9524 9.64336 9.64286C9.9529 9.33332 10.3204 9.08777 10.7248 8.92025C11.1293 8.75272 11.5627 8.6665 12.0005 8.6665C12.4383 8.6665 12.8717 8.75272 13.2762 8.92025C13.6806 9.08777 14.0481 9.33332 14.3576 9.64286C14.6672 9.9524 14.9127 10.3199 15.0803 10.7243C15.2478 11.1288 15.334 11.5622 15.334 12C15.334 12.8841 14.9828 13.732 14.3576 14.3571C13.7325 14.9823 12.8846 15.3335 12.0005 15.3335C11.1164 15.3335 10.2685 14.9823 9.64336 14.3571C9.01821 13.732 8.667 12.8841 8.667 12ZM6.865 12C6.865 12.6743 6.99782 13.3421 7.25588 13.9651C7.51394 14.5881 7.89218 15.1542 8.36901 15.631C8.84584 16.1078 9.41191 16.4861 10.0349 16.7441C10.6579 17.0022 11.3257 17.135 12 17.135C12.6743 17.135 13.3421 17.0022 13.9651 16.7441C14.5881 16.4861 15.1542 16.1078 15.631 15.631C16.1078 15.1542 16.4861 14.5881 16.7441 13.9651C17.0022 13.3421 17.135 12.6743 17.135 12C17.135 10.6381 16.594 9.33201 15.631 8.36901C14.668 7.40601 13.3619 6.865 12 6.865C10.6381 6.865 9.33201 7.40601 8.36901 8.36901C7.40601 9.33201 6.865 10.6381 6.865 12M16.138 6.662C16.138 6.89934 16.2084 7.13135 16.3402 7.32868C16.4721 7.52602 16.6595 7.67983 16.8788 7.77066C17.0981 7.86148 17.3393 7.88524 17.5721 7.83894C17.8049 7.79264 18.0187 7.67835 18.1865 7.51053C18.3544 7.34271 18.4686 7.12889 18.5149 6.89611C18.5612 6.66333 18.5375 6.42205 18.4467 6.20278C18.3558 5.98351 18.202 5.79609 18.0047 5.66424C17.8073 5.53238 17.5753 5.462 17.338 5.462C17.0197 5.462 16.7145 5.58843 16.4895 5.81347C16.2644 6.03852 16.138 6.34374 16.138 6.662M7.96 20.14C6.985 20.095 6.455 19.933 6.103 19.796C5.66862 19.6357 5.27566 19.3801 4.953 19.048C4.62091 18.7253 4.36532 18.3324 4.205 17.898C4.067 17.546 3.905 17.016 3.861 16.041C3.812 14.987 3.803 14.671 3.803 12.001C3.803 9.331 3.813 9.014 3.861 7.959C3.905 6.984 4.069 6.455 4.205 6.102C4.386 5.635 4.603 5.302 4.953 4.952C5.303 4.602 5.635 4.385 6.103 4.204C6.455 4.066 6.985 3.904 7.96 3.86C9.014 3.81 9.33 3.8 12 3.8C14.67 3.8 14.986 3.81 16.041 3.859C17.016 3.903 17.545 4.067 17.898 4.203C18.365 4.383 18.698 4.601 19.048 4.951C19.398 5.301 19.615 5.634 19.797 6.101C19.934 6.453 20.097 6.983 20.14 7.958C20.189 9.013 20.199 9.328 20.199 11.999C20.199 14.669 20.189 14.985 20.14 16.04C20.096 17.015 19.933 17.545 19.797 17.897C19.6367 18.3314 19.3811 18.7243 19.049 19.047C18.7263 19.3791 18.3334 19.6347 17.899 19.795C17.546 19.932 17.016 20.095 16.041 20.139C14.987 20.187 14.671 20.197 12 20.197C9.33 20.197 9.014 20.187 7.96 20.139M7.877 2.06C6.813 2.109 6.085 2.278 5.45 2.525C4.78247 2.77582 4.17773 3.16931 3.678 3.678C3.16931 4.17773 2.77582 4.78247 2.525 5.45C2.278 6.086 2.109 6.813 2.061 7.877C2.01 8.943 2 9.284 2 12C2 14.716 2.011 15.057 2.06 16.123C2.109 17.187 2.278 17.914 2.525 18.55C2.77594 19.2172 3.16943 19.8216 3.678 20.321C4.17763 20.8301 4.78238 21.2239 5.45 21.475C6.086 21.722 6.813 21.891 7.877 21.939C8.944 21.988 9.284 22 12 22C14.716 22 15.057 21.989 16.123 21.94C17.187 21.891 17.914 21.722 18.55 21.475C19.2173 21.2238 19.8217 20.8299 20.321 20.321C20.8298 19.8219 21.2236 19.2179 21.475 18.551C21.722 17.914 21.892 17.187 21.939 16.123C21.988 15.056 21.999 14.716 21.999 12C21.999 9.284 21.988 8.943 21.939 7.877C21.891 6.813 21.722 6.085 21.475 5.45C21.2239 4.78238 20.8301 4.17763 20.321 3.678C19.8218 3.16955 19.2178 2.77607 18.551 2.525C17.914 2.278 17.187 2.108 16.124 2.061C15.057 2.012 14.717 2 12 2C9.283 2 8.943 2.011 7.876 2.06" fill="white"/>
</svg>
