<svg width="20" height="20" viewBox="0 0 20 20" fill="none" xmlns="http://www.w3.org/2000/svg">
<path d="M0.00277459 10.0299C0.0667746 13.0319 1.45577 16.0349 3.81277 17.8439C4.55577 18.3919 5.36278 18.7149 6.20278 19.0709C5.84677 16.7779 6.71878 14.4849 7.20278 12.2249C7.26777 11.9989 7.29977 11.7409 7.29977 11.4819C7.29977 11.1269 7.17077 10.7719 7.07377 10.4169C6.97069 9.82609 7.0495 9.21791 7.29977 8.6729C7.65577 7.9309 8.49477 7.3489 9.23777 7.6399C9.91577 7.8979 10.1738 8.8019 10.0448 9.5129C9.91478 10.2549 9.52777 10.9009 9.33477 11.6119C9.10877 12.3219 9.14077 13.1939 9.65677 13.6779C10.1418 14.1299 10.9168 14.1629 11.5298 13.9039C12.4338 13.5169 13.0158 12.6129 13.3698 11.7089C14.0168 10.0289 13.8878 7.8989 12.5638 6.6709C12.0138 6.1219 11.2398 5.7669 10.3998 5.6379C8.97977 5.4119 7.42977 5.8319 6.42777 6.8649C5.42777 7.8979 4.97477 9.4799 5.39477 10.8369C5.52477 11.2889 5.78278 11.7409 5.87978 12.1929C5.97678 12.6449 5.94377 13.2259 5.62077 13.5489C5.58331 13.588 5.53974 13.6208 5.49177 13.6459C5.42677 13.6779 5.33077 13.6139 5.26577 13.5809C4.65277 13.1939 4.16777 12.5809 3.87777 11.9349C2.97277 9.9649 3.42577 7.5109 4.84577 5.8959C6.26677 4.2819 8.55977 3.5059 10.6908 3.7969C12.6928 4.0559 14.6618 5.2499 15.5018 7.0909C16.0188 8.1889 16.1148 9.4479 15.9218 10.6429C15.7278 11.8699 15.2438 13.0329 14.4358 13.9689C13.6278 14.9049 12.4658 15.5509 11.2398 15.6159C10.2388 15.6799 9.17278 15.3249 8.65578 14.4859C8.33378 16.2289 7.71977 17.9399 6.81577 19.4579C6.78377 19.5229 8.88277 19.9749 9.07577 19.9749C11.4658 20.1689 14.0158 19.2319 15.8898 17.7469C21.0558 13.6459 20.5068 5.7989 15.4048 1.9249C12.7568 -0.110104 9.62477 -0.497104 6.52477 0.600896C5.58877 0.923896 4.71677 1.4729 3.90977 2.0539C2.62216 3.01576 1.59087 4.27954 0.906775 5.7339C0.228775 7.0589 -0.0302254 8.5449 0.00277459 10.0299Z" fill="white"/>
</svg>
