<svg width="20" height="12" viewBox="0 0 20 12" fill="none" xmlns="http://www.w3.org/2000/svg">
<path d="M0.227 5.19744C0.185 5.19744 0.152 5.22944 0.147 5.27544L0 6.38544L0.146 7.47844C0.152 7.52444 0.185 7.55644 0.226 7.55644C0.266 7.55644 0.3 7.52444 0.306 7.47844L0.48 6.38644L0.306 5.27544C0.3 5.22944 0.267 5.19744 0.227 5.19744ZM1.048 4.59044C1.041 4.54244 1.007 4.50944 0.965 4.50944C0.923 4.50944 0.887 4.54344 0.882 4.58944L0.685 6.38644L0.882 8.14244C0.887 8.18944 0.922 8.22344 0.965 8.22344C1.007 8.22344 1.041 8.19044 1.048 8.14344L1.271 6.38644L1.048 4.59044ZM4.147 2.93244C4.10736 2.9332 4.06954 2.94922 4.04142 2.97716C4.01329 3.0051 3.99702 3.04281 3.996 3.08244L3.839 6.38644L3.996 8.52244C4 8.60544 4.066 8.67244 4.147 8.67244C4.228 8.67244 4.294 8.60544 4.299 8.52244L4.476 6.38644L4.299 3.08244C4.29772 3.04272 4.28124 3.005 4.25295 2.97709C4.22467 2.94917 4.18674 2.93319 4.147 2.93244ZM2.544 4.08044C2.5132 4.08094 2.48377 4.09326 2.46181 4.11485C2.43984 4.13644 2.42702 4.16566 2.426 4.19644L2.25 6.38644L2.426 8.50444C2.42727 8.53505 2.4402 8.56401 2.46214 8.5854C2.48408 8.60678 2.51337 8.61896 2.544 8.61944C2.604 8.61944 2.655 8.56944 2.661 8.50444L2.861 6.38544L2.661 4.19544C2.655 4.13044 2.605 4.08044 2.544 4.08044ZM5.777 8.67144C5.877 8.67144 5.958 8.59144 5.962 8.48744L6.116 6.38744L5.962 1.98744C5.96023 1.93913 5.94012 1.8933 5.90575 1.8593C5.87137 1.8253 5.82533 1.80568 5.777 1.80444C5.72801 1.80444 5.681 1.82376 5.64618 1.85821C5.61136 1.89266 5.59153 1.93946 5.591 1.98844L5.455 6.38844L5.591 8.48844C5.59204 8.53717 5.61207 8.58356 5.64681 8.61774C5.68155 8.65193 5.72826 8.67119 5.777 8.67144ZM9.113 8.68144C9.17995 8.68067 9.24396 8.6538 9.2914 8.60654C9.33884 8.55929 9.36596 8.49539 9.367 8.42844L9.474 6.38844L9.367 1.30844C9.36596 1.24149 9.33884 1.17759 9.2914 1.13034C9.24396 1.08309 9.17995 1.05622 9.113 1.05544C9.04597 1.05596 8.98181 1.08275 8.93432 1.13006C8.88683 1.17736 8.85978 1.24141 8.859 1.30844L8.763 6.38744L8.859 8.43044C8.86056 8.49695 8.88794 8.56023 8.93535 8.6069C8.98276 8.65356 9.04648 8.67994 9.113 8.68044M7.432 8.67244C7.552 8.67244 7.648 8.57644 7.652 8.45344V8.45544L7.782 6.38744L7.652 1.95544C7.65147 1.89744 7.62806 1.842 7.58686 1.80117C7.54566 1.76034 7.49 1.73744 7.432 1.73744C7.374 1.73744 7.31834 1.76034 7.27714 1.80117C7.23594 1.842 7.21253 1.89744 7.212 1.95544L7.096 6.38744L7.212 8.45544C7.21279 8.51327 7.23631 8.56846 7.27749 8.60907C7.31866 8.64968 7.37417 8.67245 7.432 8.67244ZM3.342 8.65244C3.37696 8.6517 3.41032 8.63761 3.43523 8.61307C3.46015 8.58853 3.47473 8.55539 3.476 8.52044L3.666 6.38444L3.476 4.35344C3.47473 4.31849 3.46015 4.28535 3.43523 4.26081C3.41032 4.23627 3.37696 4.22218 3.342 4.22144C3.30696 4.22194 3.27347 4.23595 3.2485 4.26054C3.22354 4.28513 3.20903 4.31841 3.208 4.35344L3.042 6.38444L3.208 8.52044C3.20877 8.55565 3.22317 8.58918 3.24816 8.61398C3.27315 8.63879 3.30679 8.65293 3.342 8.65344M1.752 8.53744C1.804 8.53744 1.846 8.49544 1.852 8.43944L2.064 6.38544L1.852 4.25444C1.846 4.19744 1.804 4.15644 1.752 4.15644C1.7 4.15644 1.657 4.19744 1.652 4.25444L1.465 6.38544L1.651 8.43844C1.656 8.49544 1.699 8.53744 1.751 8.53744M8.268 1.88344C8.20532 1.88344 8.14519 1.90827 8.10077 1.9525C8.05635 1.99673 8.03126 2.05676 8.031 2.11944L7.925 6.38944L8.031 8.44344C8.03127 8.5063 8.05649 8.56648 8.10112 8.61073C8.14576 8.65499 8.20614 8.67971 8.269 8.67944C8.33186 8.67918 8.39203 8.65395 8.43629 8.60932C8.48055 8.56469 8.50527 8.5043 8.505 8.44144V8.44344L8.623 6.38844L8.505 2.11844C8.50447 2.05593 8.47927 1.99616 8.43488 1.95215C8.39049 1.90813 8.33051 1.88344 8.268 1.88344ZM4.958 8.67544C5.00222 8.67493 5.04451 8.6572 5.07588 8.62602C5.10724 8.59484 5.12522 8.55266 5.126 8.50844L5.291 6.38744L5.126 2.32744C5.12522 2.28322 5.10724 2.24104 5.07588 2.20986C5.04451 2.17868 5.00222 2.16096 4.958 2.16044C4.9136 2.1607 4.87106 2.17831 4.83948 2.20952C4.8079 2.24072 4.78978 2.28305 4.789 2.32744L4.643 6.38744L4.789 8.50944C4.79004 8.55366 4.80827 8.59573 4.83983 8.62672C4.87138 8.65772 4.91377 8.67519 4.958 8.67544ZM6.802 8.47444L6.944 6.38844L6.802 1.84044C6.80148 1.78703 6.78003 1.73595 6.74226 1.69818C6.70449 1.66041 6.65341 1.63896 6.6 1.63844C6.49 1.63844 6.4 1.72744 6.397 1.84044L6.271 6.38744L6.398 8.47544C6.401 8.58744 6.49 8.67544 6.6 8.67544C6.71 8.67544 6.799 8.58744 6.802 8.47444ZM17.539 3.76644C17.2126 3.76741 16.8895 3.8323 16.588 3.95744C16.5286 3.28665 16.314 2.63887 15.9611 2.06535C15.6081 1.49184 15.1265 1.00833 14.5545 0.653065C13.9824 0.297804 13.3355 0.0805454 12.6649 0.0184755C11.9944 -0.0435943 11.3186 0.0512284 10.691 0.295442C10.506 0.367442 10.456 0.441442 10.455 0.585442V8.39244C10.456 8.54244 10.573 8.66844 10.72 8.68244L17.539 8.68744C18.1914 8.68744 18.8171 8.42826 19.2785 7.96692C19.7398 7.50558 19.999 6.87987 19.999 6.22744C19.999 5.57501 19.7398 4.9493 19.2785 4.48796C18.8171 4.02662 18.1914 3.76644 17.539 3.76644ZM9.952 0.578442C9.88036 0.578957 9.81178 0.607506 9.76094 0.657974C9.7101 0.708441 9.68104 0.776813 9.68 0.848442L9.57 6.39044L9.68 8.40244C9.68131 8.4738 9.71051 8.54182 9.76135 8.59191C9.81219 8.642 9.88063 8.67019 9.952 8.67044C10.0234 8.66966 10.0916 8.64097 10.1421 8.5905C10.1925 8.54003 10.2212 8.47181 10.222 8.40044V8.40244L10.343 6.39044L10.223 0.848442C10.222 0.776984 10.193 0.70876 10.1424 0.65832C10.0918 0.607881 10.0235 0.579217 9.952 0.578442ZM1.987 10.2524C1.696 10.1834 1.617 10.1474 1.617 10.0324C1.617 9.95044 1.682 9.86644 1.879 9.86644C2.047 9.86644 2.179 9.93444 2.296 10.0554L2.561 9.79844C2.4766 9.70528 2.37322 9.63129 2.25782 9.58144C2.14242 9.53159 2.01768 9.50704 1.892 9.50944C1.53 9.50944 1.237 9.71444 1.237 10.0474C1.237 10.4094 1.473 10.5174 1.811 10.5954C2.157 10.6744 2.22 10.7264 2.22 10.8454C2.22 10.9834 2.117 11.0444 1.9 11.0444C1.81099 11.0465 1.72263 11.0287 1.64133 10.9924C1.56004 10.9561 1.48785 10.9021 1.43 10.8344L1.166 11.0704C1.305 11.2744 1.573 11.4034 1.879 11.4034C2.38 11.4034 2.6 11.1674 2.6 10.8184C2.6 10.4194 2.278 10.3204 1.987 10.2524ZM3.676 9.50944C3.176 9.50944 2.879 9.89844 2.879 10.4564C2.879 11.0154 3.175 11.4034 3.676 11.4034C4.176 11.4034 4.473 11.0154 4.473 10.4564C4.473 9.89744 4.177 9.50944 3.676 9.50944ZM3.676 11.0394C3.38 11.0394 3.256 10.7844 3.256 10.4564C3.256 10.1284 3.38 9.87444 3.676 9.87444C3.972 9.87444 4.096 10.1294 4.096 10.4564C4.096 10.7844 3.972 11.0394 3.676 11.0394ZM5.955 10.5684C5.955 10.8624 5.81 11.0434 5.577 11.0434C5.344 11.0434 5.202 10.8574 5.202 10.5634V9.53744H4.835V10.5684C4.835 11.1034 5.135 11.4024 5.577 11.4024C6.044 11.4024 6.322 11.0954 6.322 10.5634V9.53744H5.955V10.5684ZM7.905 10.3144C7.905 10.4164 7.911 10.6474 7.911 10.7144C7.887 10.6674 7.827 10.5764 7.783 10.5074L7.132 9.53744H6.78V11.3734H7.142V10.5654C7.142 10.4634 7.136 10.2324 7.136 10.1644C7.16 10.2114 7.221 10.3034 7.265 10.3714L7.939 11.3734H8.267V9.53744H7.905V10.3144ZM9.314 9.53744H8.74V11.3734H9.287C9.76 11.3734 10.227 11.1004 10.227 10.4554C10.227 9.78444 9.838 9.53744 9.314 9.53744ZM9.287 11.0174H9.107V9.89444H9.301C9.689 9.89444 9.849 10.0804 9.849 10.4554C9.849 10.7914 9.673 11.0164 9.287 11.0164M11.362 9.87244C11.4316 9.86856 11.5007 9.88552 11.5605 9.92114C11.6204 9.95677 11.6683 10.0095 11.698 10.0724L12.038 9.91444C11.923 9.67644 11.713 9.50844 11.368 9.50844C10.888 9.50844 10.552 9.89644 10.552 10.4544C10.552 11.0344 10.874 11.4014 11.354 11.4014C11.687 11.4014 11.908 11.2464 12.034 10.9864L11.724 10.8034C11.627 10.9654 11.53 11.0364 11.364 11.0364C11.089 11.0364 10.929 10.7844 10.929 10.4544C10.929 10.1144 11.087 9.87244 11.362 9.87244ZM12.724 9.53644H12.357V11.3724H13.46V11.0104H12.724V9.53644ZM14.427 9.50744C13.927 9.50744 13.63 9.89644 13.63 10.4544C13.63 11.0134 13.926 11.4014 14.427 11.4014C14.928 11.4014 15.224 11.0134 15.224 10.4544C15.224 9.89544 14.928 9.50744 14.427 9.50744ZM14.427 11.0374C14.131 11.0374 14.007 10.7824 14.007 10.4544C14.007 10.1264 14.131 9.87244 14.427 9.87244C14.723 9.87244 14.847 10.1274 14.847 10.4544C14.847 10.7824 14.723 11.0374 14.427 11.0374ZM16.706 10.5664C16.706 10.8604 16.562 11.0414 16.329 11.0414C16.095 11.0414 15.953 10.8554 15.953 10.5614V9.53544H15.586V10.5664C15.586 11.1014 15.886 11.4004 16.329 11.4004C16.795 11.4004 17.073 11.0934 17.073 10.5614V9.53544H16.706V10.5664ZM18.106 9.53644H17.532V11.3714H18.08C18.552 11.3714 19.019 11.0984 19.019 10.4534C19.019 9.78244 18.631 9.53644 18.106 9.53644ZM18.08 11.0144H17.9V9.89144H18.094C18.481 9.89144 18.641 10.0774 18.641 10.4524C18.641 10.7884 18.466 11.0134 18.081 11.0134" fill="white"/>
</svg>
