<svg width="20" height="20" viewBox="0 0 20 20" fill="none" xmlns="http://www.w3.org/2000/svg">
<path d="M10 0C4.452 0 0 4.452 0 10C0 15.548 4.452 20 10 20C15.548 20 20 15.548 20 10C20 4.452 15.548 0 10 0ZM14.58 14.42C14.4798 14.5478 14.3403 14.639 14.1831 14.6797C14.0258 14.7203 13.8596 14.7082 13.71 14.645C11.355 13.194 8.387 12.871 4.935 13.645C4.85665 13.6675 4.77451 13.6734 4.69374 13.6626C4.61296 13.6517 4.53532 13.6242 4.4657 13.5818C4.39608 13.5395 4.336 13.4831 4.28924 13.4164C4.24247 13.3496 4.21005 13.2739 4.194 13.194C4.097 12.839 4.323 12.516 4.645 12.419C8.452 11.549 11.677 11.935 14.387 13.549C14.677 13.774 14.774 14.129 14.581 14.419M15.808 11.741C15.582 12.096 15.066 12.192 14.775 11.967C12.098 10.322 8.001 9.837 4.807 10.837C4.388 10.967 3.937 10.741 3.84 10.289C3.71 9.87 3.936 9.419 4.388 9.322C8.033 8.192 12.518 8.773 15.614 10.644C15.904 10.87 16.034 11.322 15.808 11.741ZM15.904 8.87C12.678 6.967 7.356 6.773 4.259 7.74C3.807 7.87 3.259 7.612 3.13 7.096C3.001 6.644 3.26 6.096 3.775 5.966C7.324 4.934 13.13 5.096 16.872 7.322C17.324 7.58 17.452 8.192 17.227 8.58C16.969 8.999 16.356 9.128 15.904 8.87Z" fill="white"/>
</svg>
