<svg width="18" height="20" viewBox="0 0 18 20" fill="none" xmlns="http://www.w3.org/2000/svg">
<path d="M9.12439 0.017C10.2164 -4.09782e-08 11.2994 0.008 12.3824 0C12.4494 1.275 12.9074 2.575 13.8414 3.475C14.7744 4.4 16.0914 4.825 17.3744 4.967V8.325C16.1744 8.283 14.9664 8.033 13.8744 7.517C13.3994 7.3 12.9574 7.025 12.5244 6.742C12.5164 9.175 12.5324 11.608 12.5074 14.033C12.444 15.2105 12.0545 16.3471 11.3824 17.316C10.2914 18.916 8.39939 19.958 6.45839 19.991C5.26639 20.058 4.07439 19.733 3.05839 19.133C1.37439 18.141 0.191388 16.325 0.0163879 14.375C-0.00235251 13.9613 -0.00502109 13.5469 0.00838802 13.133C0.158388 11.55 0.941388 10.033 2.15839 9C3.54139 7.8 5.47439 7.225 7.28339 7.567C7.29939 8.8 7.24939 10.033 7.24939 11.267C6.42439 11 5.45839 11.075 4.73339 11.575C4.20658 11.9244 3.80838 12.4364 3.59939 13.033C3.42439 13.458 3.47439 13.925 3.48339 14.375C3.68339 15.741 4.99939 16.891 6.39939 16.767C7.33339 16.758 8.22439 16.217 8.70839 15.425C8.86639 15.15 9.04139 14.866 9.04939 14.541C9.13339 13.05 9.09939 11.566 9.10839 10.075C9.11639 6.717 9.09939 3.367 9.12439 0.017Z" fill="white"/>
</svg>
