<svg width="18" height="18" viewBox="0 0 18 18" fill="none" xmlns="http://www.w3.org/2000/svg">
<path d="M11.729 0H6.271C1.191 0 0 1.19 0 6.271V11.787C0 16.81 1.19 18 6.271 18H11.787C16.81 18 18 16.81 18 11.729V6.271C18 1.191 16.81 0 11.729 0ZM14.516 12.832H13.21C12.716 12.832 12.542 12.426 11.642 11.526C10.858 10.742 10.51 10.655 10.336 10.655C10.103 10.655 10.016 10.684 10.016 11.061V12.251C10.016 12.571 9.929 12.745 9.087 12.745C7.694 12.745 6.184 11.875 5.081 10.335C3.455 8.042 3.048 6.329 3.048 5.952C3.048 5.748 3.078 5.574 3.455 5.574H4.76C5.08 5.574 5.225 5.69 5.34 6.068C6.009 7.955 7.054 9.581 7.518 9.581C7.693 9.581 7.751 9.493 7.751 9.087V7.171C7.721 6.271 7.257 6.241 7.257 5.865C7.257 5.748 7.373 5.545 7.577 5.545H9.609C9.899 5.545 9.986 5.661 9.986 6.039V8.623C9.986 8.913 10.102 9 10.189 9C10.364 9 10.509 8.913 10.799 8.594C11.728 7.519 12.396 5.923 12.396 5.923C12.483 5.719 12.628 5.545 12.976 5.545H14.283C14.689 5.545 14.776 5.748 14.689 6.039C14.515 6.823 12.919 9.059 12.919 9.059C12.802 9.261 12.715 9.377 12.919 9.639C13.034 9.842 13.528 10.219 13.819 10.568C14.399 11.236 14.805 11.758 14.922 12.136C15.067 12.629 14.892 12.832 14.515 12.832" fill="white"/>
</svg>
