<svg width="20" height="18" viewBox="0 0 20 18" fill="none" xmlns="http://www.w3.org/2000/svg">
<path d="M19.993 4.09693C19.897 6.06393 18.543 8.73993 15.898 12.1269C13.189 15.6739 10.868 17.4469 8.997 17.4469C7.868 17.4469 6.869 16.4149 6.03 14.2219C5.482 12.2879 4.998 10.2879 4.418 8.28893C3.838 6.16093 3.192 5.06293 2.45 5.06293C2.32 5.06293 1.773 5.38593 0.87 6.03093L0 4.74193C1 3.87093 1.967 2.99993 2.967 2.09693C4.289 0.968926 5.224 0.355926 5.934 0.323926C7.481 0.193926 8.417 1.29093 8.804 3.51593C9.158 5.96693 9.448 7.51493 9.61 8.09593C10.061 10.1269 10.577 11.1259 11.06 11.1259C11.48 11.1259 12.093 10.4819 12.963 9.15993C13.833 7.83793 14.221 6.80593 14.318 6.12793C14.447 4.99993 13.963 4.38693 12.963 4.38693C12.512 4.38693 11.996 4.48393 11.513 4.74193C12.48 1.51693 14.318 -0.0630737 17.091 0.00192629C19.123 0.0979263 20.091 1.45193 19.993 4.09693Z" fill="white"/>
</svg>
