<svg width="20" height="14" viewBox="0 0 20 14" fill="none" xmlns="http://www.w3.org/2000/svg">
<path d="M19.58 2.194C19.4699 1.76675 19.2474 1.37679 18.9356 1.06464C18.6238 0.752487 18.2341 0.52955 17.807 0.419C16.258 1.49012e-07 10 0 10 0C10 0 3.742 8.9407e-08 2.194 0.42C1.76663 0.530152 1.37658 0.7528 1.06442 1.06478C0.75226 1.37677 0.529393 1.76669 0.419 2.194C-8.9407e-08 3.774 0 7 0 7C0 7 8.9407e-08 10.258 0.42 11.807C0.645 12.677 1.323 13.355 2.194 13.581C3.742 14 10 14 10 14C10 14 16.258 14 17.807 13.58C18.2341 13.4698 18.6238 13.2472 18.9358 12.9354C19.2477 12.6236 19.4705 12.234 19.581 11.807C20 10.258 20 7 20 7C20 7 20 3.774 19.58 2.194ZM8 10V4L13.194 7L8 10Z" fill="white"/>
</svg>
